<mxfile host="app.diagrams.net" modified="2020-06-21T11:56:16.111Z" agent="5.0 (Windows NT 10.0; Win64; x64) AppleWebKit/537.36 (KHTML, like Gecko) Chrome/83.0.4103.106 Safari/537.36" etag="JxevDbB31glb2PqaitV7" version="12.9.8" type="github">
  <diagram id="LYHIaGtWOj__fcDxjnY8" name="Page-1">
    <mxGraphModel dx="1360" dy="753" grid="1" gridSize="10" guides="1" tooltips="1" connect="1" arrows="1" fold="1" page="1" pageScale="1" pageWidth="827" pageHeight="1169" math="0" shadow="0">
      <root>
        <mxCell id="0" />
        <mxCell id="1" parent="0" />
        <mxCell id="tycX-sBBcvpvpCzcoDIX-2" value="brushed &lt;br&gt;DC motor" style="shape=dataStorage;whiteSpace=wrap;html=1;direction=south;" parent="1" vertex="1">
          <mxGeometry x="200" y="40" width="80" height="100" as="geometry" />
        </mxCell>
        <mxCell id="tycX-sBBcvpvpCzcoDIX-3" value="Electronic speed controller&lt;br&gt;ESC" style="rounded=1;whiteSpace=wrap;html=1;" parent="1" vertex="1">
          <mxGeometry x="155" y="246.87" width="170" height="60" as="geometry" />
        </mxCell>
        <mxCell id="tycX-sBBcvpvpCzcoDIX-4" value="I²C - PWM&lt;br&gt;expansion" style="rounded=0;whiteSpace=wrap;html=1;" parent="1" vertex="1">
          <mxGeometry x="456.25" y="240" width="147.5" height="73.75" as="geometry" />
        </mxCell>
        <mxCell id="tycX-sBBcvpvpCzcoDIX-5" value="Servo&lt;br&gt;motor" style="shape=or;whiteSpace=wrap;html=1;direction=north;" parent="1" vertex="1">
          <mxGeometry x="717.5" y="60" width="80" height="60" as="geometry" />
        </mxCell>
        <mxCell id="tycX-sBBcvpvpCzcoDIX-7" value="Single-board computer&lt;br&gt;Raspberry Pi 4B&lt;br&gt;4GB model" style="whiteSpace=wrap;html=1;aspect=fixed;" parent="1" vertex="1">
          <mxGeometry x="460" y="390" width="140" height="140" as="geometry" />
        </mxCell>
        <mxCell id="tycX-sBBcvpvpCzcoDIX-8" value="Buck converter&lt;br&gt;7,2 V -&amp;gt; 5 V&lt;br&gt;3 A" style="html=1;shadow=0;dashed=0;align=center;verticalAlign=middle;shape=mxgraph.arrows2.arrow;dy=0;dx=30;notch=30;" parent="1" vertex="1">
          <mxGeometry x="300" y="432.5" width="160" height="55" as="geometry" />
        </mxCell>
        <mxCell id="tycX-sBBcvpvpCzcoDIX-10" value="Battery&lt;br&gt;7,2 V 1800mAh" style="rounded=1;whiteSpace=wrap;html=1;" parent="1" vertex="1">
          <mxGeometry x="180" y="430" width="120" height="60" as="geometry" />
        </mxCell>
        <mxCell id="tycX-sBBcvpvpCzcoDIX-12" value="T2M&lt;br&gt;RF-receiver" style="ellipse;shape=cloud;whiteSpace=wrap;html=1;" parent="1" vertex="1">
          <mxGeometry x="465" y="740" width="135" height="90" as="geometry" />
        </mxCell>
        <mxCell id="tycX-sBBcvpvpCzcoDIX-13" value="Camera&lt;br&gt;Raspberry Pi cam V2" style="ellipse;whiteSpace=wrap;html=1;aspect=fixed;" parent="1" vertex="1">
          <mxGeometry x="690" y="392.5" width="135" height="135" as="geometry" />
        </mxCell>
        <mxCell id="tycX-sBBcvpvpCzcoDIX-19" value="3 channel PWM&lt;br&gt;to&lt;br&gt;UART" style="shape=parallelogram;perimeter=parallelogramPerimeter;whiteSpace=wrap;html=1;" parent="1" vertex="1">
          <mxGeometry x="435" y="610" width="190" height="90" as="geometry" />
        </mxCell>
        <mxCell id="tycX-sBBcvpvpCzcoDIX-20" value="" style="curved=1;endArrow=none;html=1;strokeWidth=10;exitX=0.5;exitY=0;exitDx=0;exitDy=0;endFill=0;" parent="1" source="tycX-sBBcvpvpCzcoDIX-10" target="tycX-sBBcvpvpCzcoDIX-3" edge="1">
          <mxGeometry width="50" height="50" relative="1" as="geometry">
            <mxPoint x="220" y="390" as="sourcePoint" />
            <mxPoint x="270" y="340" as="targetPoint" />
            <Array as="points">
              <mxPoint x="270" y="390" />
              <mxPoint x="220" y="340" />
            </Array>
          </mxGeometry>
        </mxCell>
        <mxCell id="tycX-sBBcvpvpCzcoDIX-21" value="" style="curved=1;endArrow=none;html=1;strokeWidth=10;exitX=0.5;exitY=0;exitDx=0;exitDy=0;endFill=0;strokeColor=#FF0000;" parent="1" edge="1">
          <mxGeometry width="50" height="50" relative="1" as="geometry">
            <mxPoint x="260" y="432.07" as="sourcePoint" />
            <mxPoint x="250.49580231268806" y="308.9399999999999" as="targetPoint" />
            <Array as="points">
              <mxPoint x="290" y="392.07" />
              <mxPoint x="240" y="342.07" />
            </Array>
          </mxGeometry>
        </mxCell>
        <mxCell id="tycX-sBBcvpvpCzcoDIX-22" value="" style="endArrow=classic;html=1;strokeColor=#3333FF;strokeWidth=10;entryX=1;entryY=0.5;entryDx=0;entryDy=0;exitX=0;exitY=0.5;exitDx=0;exitDy=0;" parent="1" source="tycX-sBBcvpvpCzcoDIX-4" target="tycX-sBBcvpvpCzcoDIX-3" edge="1">
          <mxGeometry width="50" height="50" relative="1" as="geometry">
            <mxPoint x="385" y="240" as="sourcePoint" />
            <mxPoint x="435" y="190" as="targetPoint" />
          </mxGeometry>
        </mxCell>
        <mxCell id="tycX-sBBcvpvpCzcoDIX-24" value="PWM" style="text;html=1;strokeColor=none;fillColor=none;align=center;verticalAlign=middle;whiteSpace=wrap;rounded=0;" parent="1" vertex="1">
          <mxGeometry x="380" y="246.87" width="40" height="20" as="geometry" />
        </mxCell>
        <mxCell id="tycX-sBBcvpvpCzcoDIX-25" value="" style="curved=1;endArrow=none;html=1;strokeWidth=10;exitX=0.5;exitY=0;exitDx=0;exitDy=0;endFill=0;strokeColor=#33FFFF;" parent="1" source="tycX-sBBcvpvpCzcoDIX-3" edge="1">
          <mxGeometry width="50" height="50" relative="1" as="geometry">
            <mxPoint x="125" y="253.13" as="sourcePoint" />
            <mxPoint x="220" y="130" as="targetPoint" />
            <Array as="points">
              <mxPoint x="230" y="200" />
              <mxPoint x="250" y="170" />
            </Array>
          </mxGeometry>
        </mxCell>
        <mxCell id="tycX-sBBcvpvpCzcoDIX-27" value="" style="curved=1;endArrow=none;html=1;strokeWidth=10;exitX=0.5;exitY=0;exitDx=0;exitDy=0;endFill=0;strokeColor=#FFFF33;" parent="1" edge="1">
          <mxGeometry width="50" height="50" relative="1" as="geometry">
            <mxPoint x="260" y="246.8699999999999" as="sourcePoint" />
            <mxPoint x="240" y="130" as="targetPoint" />
            <Array as="points">
              <mxPoint x="250" y="200" />
              <mxPoint x="270" y="170" />
            </Array>
          </mxGeometry>
        </mxCell>
        <mxCell id="tycX-sBBcvpvpCzcoDIX-29" value="" style="edgeStyle=segmentEdgeStyle;endArrow=classic;html=1;strokeColor=#3333FF;strokeWidth=10;entryX=0;entryY=0.5;entryDx=0;entryDy=0;entryPerimeter=0;exitX=1;exitY=0.5;exitDx=0;exitDy=0;" parent="1" source="tycX-sBBcvpvpCzcoDIX-4" target="tycX-sBBcvpvpCzcoDIX-5" edge="1">
          <mxGeometry width="50" height="50" relative="1" as="geometry">
            <mxPoint x="710" y="190" as="sourcePoint" />
            <mxPoint x="760" y="140" as="targetPoint" />
          </mxGeometry>
        </mxCell>
        <mxCell id="tycX-sBBcvpvpCzcoDIX-30" value="PWM" style="text;html=1;strokeColor=none;fillColor=none;align=center;verticalAlign=middle;whiteSpace=wrap;rounded=0;" parent="1" vertex="1">
          <mxGeometry x="670" y="246.87" width="40" height="20" as="geometry" />
        </mxCell>
        <mxCell id="tycX-sBBcvpvpCzcoDIX-31" value="" style="endArrow=classic;html=1;strokeColor=#3333FF;strokeWidth=10;entryX=0.5;entryY=1;entryDx=0;entryDy=0;exitX=0.5;exitY=0;exitDx=0;exitDy=0;" parent="1" source="tycX-sBBcvpvpCzcoDIX-7" target="tycX-sBBcvpvpCzcoDIX-4" edge="1">
          <mxGeometry width="50" height="50" relative="1" as="geometry">
            <mxPoint x="550" y="460" as="sourcePoint" />
            <mxPoint x="600" y="410" as="targetPoint" />
          </mxGeometry>
        </mxCell>
        <mxCell id="tycX-sBBcvpvpCzcoDIX-32" value="I²C" style="text;html=1;strokeColor=none;fillColor=none;align=center;verticalAlign=middle;whiteSpace=wrap;rounded=0;" parent="1" vertex="1">
          <mxGeometry x="560" y="350" width="40" height="20" as="geometry" />
        </mxCell>
        <mxCell id="tycX-sBBcvpvpCzcoDIX-35" value="" style="endArrow=classic;html=1;strokeColor=#3333FF;strokeWidth=10;entryX=0.5;entryY=1;entryDx=0;entryDy=0;" parent="1" edge="1">
          <mxGeometry width="50" height="50" relative="1" as="geometry">
            <mxPoint x="530" y="750" as="sourcePoint" />
            <mxPoint x="529.5" y="700" as="targetPoint" />
          </mxGeometry>
        </mxCell>
        <mxCell id="tycX-sBBcvpvpCzcoDIX-37" value="PWM" style="text;html=1;strokeColor=none;fillColor=none;align=center;verticalAlign=middle;whiteSpace=wrap;rounded=0;" parent="1" vertex="1">
          <mxGeometry x="550" y="720" width="40" height="20" as="geometry" />
        </mxCell>
        <mxCell id="tycX-sBBcvpvpCzcoDIX-40" value="" style="endArrow=classic;startArrow=classic;html=1;strokeColor=#3333FF;strokeWidth=10;exitX=1;exitY=0.5;exitDx=0;exitDy=0;entryX=0;entryY=0.5;entryDx=0;entryDy=0;" parent="1" source="tycX-sBBcvpvpCzcoDIX-7" target="tycX-sBBcvpvpCzcoDIX-13" edge="1">
          <mxGeometry width="50" height="50" relative="1" as="geometry">
            <mxPoint x="650" y="450" as="sourcePoint" />
            <mxPoint x="700" y="400" as="targetPoint" />
          </mxGeometry>
        </mxCell>
        <mxCell id="_WACtMOgxJk8XvN0-2wt-2" value="UART" style="text;html=1;strokeColor=none;fillColor=none;align=center;verticalAlign=middle;whiteSpace=wrap;rounded=0;" vertex="1" parent="1">
          <mxGeometry x="560" y="560" width="40" height="20" as="geometry" />
        </mxCell>
        <mxCell id="_WACtMOgxJk8XvN0-2wt-3" value="CSI" style="text;html=1;strokeColor=none;fillColor=none;align=center;verticalAlign=middle;whiteSpace=wrap;rounded=0;" vertex="1" parent="1">
          <mxGeometry x="625" y="410" width="40" height="20" as="geometry" />
        </mxCell>
        <mxCell id="_WACtMOgxJk8XvN0-2wt-5" value="" style="endArrow=classic;startArrow=classic;html=1;strokeColor=#3333FF;strokeWidth=10;exitX=0.5;exitY=0;exitDx=0;exitDy=0;entryX=0.5;entryY=1;entryDx=0;entryDy=0;" edge="1" parent="1" source="tycX-sBBcvpvpCzcoDIX-19" target="tycX-sBBcvpvpCzcoDIX-7">
          <mxGeometry width="50" height="50" relative="1" as="geometry">
            <mxPoint x="550" y="450" as="sourcePoint" />
            <mxPoint x="600" y="400" as="targetPoint" />
          </mxGeometry>
        </mxCell>
      </root>
    </mxGraphModel>
  </diagram>
</mxfile>
